# xmcd
#
# Track frame offsets:
# 150
# 16690
# 35165
# 53890
# 98114
#
# Disc length: 1683 seconds
#
# Revision: 1
# Processed by: cddbd v1.5.1PL0 Copyright (c) Steve Scherf et al.
# Submitted via: Easy CD Ripper v2.35
#
DISCID=36069105
DTITLE=N-Tyce - Telefunkin' single
DYEAR=1998
DGENRE=Blues
TTITLE0=Telefunkin' Radio Edit - N-Tyce
TTITLE1=Telefunkin' Full Crew Remix - N-Tyce
TTITLE2=Raise your Hands - N-Tyce
TTITLE3=Telefunkin' D bob remix - N-Tyce
TTITLE4=Telefunkin' video - N-Tyce
EXTD=
EXTT0=
EXTT1=
EXTT2=
EXTT3=
EXTT4=
PLAYORDER=
